# xmcd CD database file
#
# Track frame offsets:
#	150
#	22400
#	47195
#	64357
#	80306
#	89582
#	105098
#	121521
#	139451
#	166025
#	205498
#
# Disc length: 2793 seconds
#
# Revision: 3
# Processed by: cddbd v1.5.2PL0 Copyright (c) Steve Scherf et al.
# Submitted via: CDex 1.50beta10
#
DISCID=950ae70b
DTITLE=Blackfoot - Highway Song (Live)
DYEAR=1982
DGENRE=Southern Rock
TTITLE0=Gimme, Gimme, Gimme
TTITLE1=Every Man Should Know (Queenie)
TTITLE2=Good Morning
TTITLE3=Dry Country
TTITLE4=Rollin´ and Tumblin´ 
TTITLE5=Fly Away
TTITLE6=Road Fever
TTITLE7=Trouble In Mind
TTITLE8=Train,Train
TTITLE9=Highway Song
TTITLE10=Howay The Lads
EXTD=YEAR: 1982
EXTT0=
EXTT1=
EXTT2=
EXTT3=
EXTT4=
EXTT5=
EXTT6=
EXTT7=
EXTT8=
EXTT9=
EXTT10=
PLAYORDER=
